<svg width="27" height="27" viewBox="0 0 27 27" fill="none" xmlns="http://www.w3.org/2000/svg">
<path fill-rule="evenodd" clip-rule="evenodd" d="M15.4482 0.0705566C15.7635 0.0705566 16.0294 0.305269 16.0684 0.618032L16.3586 2.93955C17.2419 3.17889 18.0794 3.52919 18.8551 3.97444L20.7025 2.53754C20.9514 2.34402 21.3054 2.36606 21.5282 2.58894L21.0862 3.03088L21.0863 3.03092L21.5282 2.58894L24.1799 5.24059C24.4027 5.46348 24.4247 5.81744 24.2312 6.06624L22.7943 7.91372C23.2396 8.68947 23.5899 9.52694 23.8292 10.4102L26.1507 10.7004C26.4635 10.7394 26.6982 11.0053 26.6982 11.3206V15.0706C26.6982 15.3858 26.4635 15.6517 26.1507 15.6907L23.8293 15.9809C23.59 16.8642 23.2396 17.7017 22.7943 18.4774L24.2312 20.3248C24.4247 20.5737 24.4027 20.9277 24.1799 21.1506L21.5282 23.8022C21.3054 24.0251 20.9514 24.0471 20.7025 23.8536L18.8551 22.4167C18.0793 22.8619 17.2419 23.2123 16.3586 23.4516L16.0684 25.7731C16.0294 26.0858 15.7635 26.3206 15.4482 26.3206H11.6982C11.383 26.3206 11.1171 26.0858 11.0781 25.7731L10.7879 23.4516C9.90463 23.2123 9.06716 22.8619 8.29142 22.4166L6.44394 23.8536C6.19514 24.0471 5.84118 24.0251 5.61829 23.8022L2.96664 21.1506L3.40862 20.7086L3.40858 20.7086L2.96664 21.1506C2.74375 20.9277 2.72172 20.5737 2.91524 20.3248L4.35213 18.4774C3.90688 17.7017 3.55657 16.8642 3.31724 15.9809L0.995717 15.6907C0.682955 15.6517 0.448242 15.3858 0.448242 15.0706V11.3206C0.448242 11.0053 0.682955 10.7394 0.995717 10.7004L3.31725 10.4102C3.55659 9.52693 3.90689 8.68945 4.35214 7.9137L2.91523 6.06626C2.72172 5.81744 2.74375 5.46348 2.96664 5.24059L5.61829 2.58894C5.84117 2.36607 6.19514 2.34403 6.44394 2.53754L8.2914 3.97445C9.06714 3.5292 9.90461 3.1789 10.7879 2.93957L11.0781 0.618032C11.1171 0.305269 11.383 0.0705566 11.6982 0.0705566H15.4482ZM11.493 4.05204C10.4444 4.28952 9.46248 4.70284 8.57954 5.25968C8.35692 5.40009 8.07018 5.38597 7.86243 5.22438L6.11203 3.86297L4.24066 5.73434L5.60208 7.48473C5.76367 7.69249 5.77778 7.97922 5.63738 8.20184C5.08053 9.08478 4.6672 10.0668 4.42973 11.1153C4.37158 11.3719 4.15885 11.5647 3.89768 11.5973L1.69824 11.8722V14.5189L3.89768 14.7938C4.15885 14.8264 4.37158 15.0192 4.42973 15.2758C4.6672 16.3243 5.08054 17.3063 5.63738 18.1893C5.77778 18.4119 5.76367 18.6987 5.60208 18.9064L4.24066 20.6568L6.11204 22.5282L7.86243 21.1667C8.07019 21.0052 8.35692 20.9911 8.57954 21.1314C9.46248 21.6883 10.4444 22.1016 11.493 22.3391C11.7496 22.3972 11.9424 22.6099 11.975 22.8711L12.2499 25.0706H14.8966L15.1715 22.8711C15.2041 22.6099 15.3969 22.3972 15.6535 22.3391C16.702 22.1016 17.684 21.6883 18.567 21.1314C18.7896 20.9911 19.0762 21.0052 19.2841 21.1667L21.0345 22.5282L22.9059 20.6568L21.5444 18.9064C21.3829 18.6987 21.3687 18.4119 21.5091 18.1893C22.066 17.3063 22.4792 16.3243 22.7167 15.2758C22.7749 15.0192 22.9876 14.8264 23.2487 14.7938L25.4482 14.5189V11.8722L23.2487 11.5973C22.9876 11.5647 22.7749 11.3719 22.7167 11.1153C22.4792 10.0667 22.066 9.08478 21.5091 8.20184C21.3687 7.97922 21.3829 7.69248 21.5444 7.48473L22.9059 5.73434L21.0345 3.86296L19.2841 5.22438C19.0762 5.38597 18.7896 5.40008 18.567 5.25968C17.684 4.70284 16.702 4.28952 15.6535 4.05204C15.3969 3.99389 15.2041 3.78117 15.1715 3.51999L14.8966 1.32056H12.2499L11.975 3.51999C11.9424 3.78117 11.7496 3.99389 11.493 4.05204ZM9.07324 13.1956C9.07324 10.7103 11.088 8.69556 13.5732 8.69556C16.0585 8.69556 18.0732 10.7103 18.0732 13.1956C18.0732 15.6808 16.0585 17.6956 13.5732 17.6956C11.088 17.6956 9.07324 15.6808 9.07324 13.1956ZM13.5732 7.69556C10.5357 7.69556 8.07324 10.158 8.07324 13.1956C8.07324 16.2331 10.5357 18.6956 13.5732 18.6956C16.6108 18.6956 19.0732 16.2331 19.0732 13.1956C19.0732 10.158 16.6108 7.69556 13.5732 7.69556Z" fill="black"/>
</svg>
