<svg width="412" height="85" viewBox="0 0 412 85" fill="none" xmlns="http://www.w3.org/2000/svg">
<path d="M51.4 73.7H42.6L71.5 7.99999H93.4L58.5 83H35L0.1 7.99999H22.3L51.4 73.7ZM99.057 25L109.357 27L119.557 25V83H99.057V25ZM109.257 20.3C105.724 20.3 102.857 19.4333 100.657 17.7C98.457 15.9 97.357 13.4667 97.357 10.4C97.357 7.4 98.457 5 100.657 3.2C102.857 1.4 105.724 0.499995 109.257 0.499995C112.924 0.499995 115.824 1.4 117.957 3.2C120.157 5 121.257 7.4 121.257 10.4C121.257 13.4667 120.157 15.9 117.957 17.7C115.824 19.4333 112.924 20.3 109.257 20.3ZM164.295 84.6C157.362 84.6 151.162 83.3333 145.695 80.8C140.295 78.2667 136.029 74.7333 132.895 70.2C129.762 65.6 128.195 60.2667 128.195 54.2C128.195 48.2667 129.695 43.0667 132.695 38.6C135.695 34.0667 139.795 30.5333 144.995 28C150.262 25.4667 156.195 24.2 162.795 24.2C169.662 24.2 175.495 25.7 180.295 28.7C185.162 31.6333 188.895 35.8 191.495 41.2C194.162 46.6 195.495 52.9667 195.495 60.3H144.695V48H183.995L177.295 52.3C177.029 49.3667 176.295 46.9 175.095 44.9C173.895 42.8333 172.295 41.2667 170.295 40.2C168.362 39.1333 166.029 38.6 163.295 38.6C160.295 38.6 157.729 39.2 155.595 40.4C153.462 41.6 151.795 43.2667 150.595 45.4C149.395 47.4667 148.795 49.9 148.795 52.7C148.795 56.3 149.595 59.3667 151.195 61.9C152.862 64.3667 155.262 66.2667 158.395 67.6C161.595 68.9333 165.495 69.6 170.095 69.6C174.295 69.6 178.462 69.0667 182.595 68C186.795 66.8667 190.595 65.3 193.995 63.3V76.3C190.062 78.9667 185.562 81.0333 180.495 82.5C175.495 83.9 170.095 84.6 164.295 84.6ZM201.24 25.9H221.74L225.44 48.7V83H205.04V45.6L201.24 25.9ZM246.44 24.2C251.907 24.2 256.573 25.3 260.44 27.5C264.307 29.7 267.24 32.8 269.24 36.8C271.307 40.8 272.34 45.5333 272.34 51V83H251.94V54C251.94 49.7333 250.84 46.4667 248.64 44.2C246.507 41.9333 243.407 40.8 239.34 40.8C236.54 40.8 234.073 41.4 231.94 42.6C229.873 43.8 228.273 45.5 227.14 47.7C226.007 49.9 225.44 52.5 225.44 55.5L219.14 52.2C219.94 46.1333 221.64 41.0333 224.24 36.9C226.84 32.7 230.04 29.5333 233.84 27.4C237.64 25.2667 241.84 24.2 246.44 24.2ZM276.967 41V32.1L288.567 27.4L297.367 10.5H308.967V25.9H332.967V41H308.967V57.8C308.967 61.9333 309.801 64.8333 311.467 66.5C313.134 68.1667 316.167 69 320.567 69C323.367 69 325.834 68.7667 327.967 68.3C330.167 67.7667 332.167 67.1 333.967 66.3V81.7C331.967 82.4333 329.334 83.1 326.067 83.7C322.801 84.3 319.434 84.6 315.967 84.6C309.634 84.6 304.434 83.6333 300.367 81.7C296.367 79.7667 293.401 77 291.467 73.4C289.534 69.7333 288.567 65.4667 288.567 60.6V41H276.967ZM374.463 84.6C367.13 84.6 360.73 83.3667 355.263 80.9C349.797 78.3667 345.53 74.8333 342.463 70.3C339.397 65.7 337.863 60.4333 337.863 54.5C337.863 48.4333 339.397 43.1333 342.463 38.6C345.53 34.0667 349.797 30.5333 355.263 28C360.73 25.4667 367.13 24.2 374.463 24.2C381.73 24.2 388.097 25.4667 393.563 28C399.097 30.5333 403.397 34.0667 406.463 38.6C409.53 43.1333 411.063 48.4333 411.063 54.5C411.063 60.4333 409.53 65.7 406.463 70.3C403.397 74.8333 399.097 78.3667 393.563 80.9C388.097 83.3667 381.73 84.6 374.463 84.6ZM374.463 69.5C377.797 69.5 380.63 68.9 382.963 67.7C385.363 66.5 387.197 64.7667 388.463 62.5C389.73 60.2333 390.363 57.5667 390.363 54.5C390.363 51.3 389.73 48.6 388.463 46.4C387.197 44.1333 385.363 42.4 382.963 41.2C380.63 40 377.797 39.4 374.463 39.4C371.13 39.4 368.263 40 365.863 41.2C363.463 42.4 361.63 44.1333 360.363 46.4C359.097 48.6 358.463 51.2667 358.463 54.4C358.463 57.5333 359.097 60.2333 360.363 62.5C361.63 64.7667 363.463 66.5 365.863 67.7C368.263 68.9 371.13 69.5 374.463 69.5Z" fill="#00C2E8"/>
</svg>
